# xmcd
#
# Track frame offsets:
#	150
#	13132
#	26020
#	39456
#	53624
#	66951
#	80006
#	93704
#	106486
#	120265
#	133320
#	146485
#	160557
#	173522
#	187883
#	201415
#	214437
#	226777
#	241305
#	254860
#	267325
#	280082
#	294094
#
# Disc length: 4125 seconds
#
# Revision: 0
# Processed by: cddbd v1.5.2PL0 Copyright (c) Steve Scherf et al.
# Submitted via: EZCDAudioConverter 7.1.2.1
#
DISCID=4e101b17
DTITLE=Blind Willie McTell - 1927-1940
DYEAR=1900
DGENRE=Blues
TTITLE0=Love Makin' Mama (take 2)
TTITLE1=Death Room Blues (take 1)
TTITLE2=Death Room Blues (take 2)
TTITLE3=Death Cell Blues
TTITLE4=Lord, Send Me An Angel (take 1)
TTITLE5=Lord, Send Me An Angel (take 2)
TTITLE6=B And O Blues #2 (take 1)
TTITLE7=B And O Blues #2 (take 2)
TTITLE8=Weary Hearted Blues
TTITLE9=Bell Street Lightnin'
TTITLE10=Southern Can Mama
TTITLE11=Runnin' Me Crazy
TTITLE12=East St. Louis Blues (Fare You Well)
TTITLE13=Ain't It Grand To Be A Christian
TTITLE14=We Got To Meet Death One Day (take 1)
TTITLE15=We Got To Meet Death One Day (take 2)
TTITLE16=Don't Let Nobody Turn You Around
TTITLE17=I Got Religion, So I'm Glad
TTITLE18=Dying Gambler
TTITLE19=God Don't Like It
TTITLE20=Bell Street Blues
TTITLE21=Let Me Play With Yo 'Yo-Yo
TTITLE22=Lay Some Flowers On My Grave
EXTD=
EXTT0=
EXTT1=
EXTT2=
EXTT3=
EXTT4=
EXTT5=
EXTT6=
EXTT7=
EXTT8=
EXTT9=
EXTT10=
EXTT11=
EXTT12=
EXTT13=
EXTT14=
EXTT15=
EXTT16=
EXTT17=
EXTT18=
EXTT19=
EXTT20=
EXTT21=
EXTT22=
PLAYORDER=
